<?xml version="1.0" encoding="utf-8"?>
<!-- Generator: Adobe Illustrator 20.1.0, SVG Export Plug-In . SVG Version: 6.00 Build 0)  -->
<svg version="1.1"
	 id="svg1358" xmlns:cc="http://creativecommons.org/ns#" xmlns:dc="http://purl.org/dc/elements/1.1/" xmlns:rdf="http://www.w3.org/1999/02/22-rdf-syntax-ns#"
	 xmlns="http://www.w3.org/2000/svg" xmlns:xlink="http://www.w3.org/1999/xlink" x="0px" y="0px" viewBox="0 0 640 480"
	 style="enable-background:new 0 0 640 480;" xml:space="preserve">
<style type="text/css">
	.st0{clip-path:url(#SVGID_2_);}
	.st1{fill:#3399CC;}
	.st2{fill:#FFFF00;}
	.st3{fill:#99CCCC;}
	.st4{fill:#CCCCFF;}
	.st5{fill:#66CCCC;}
	.st6{fill:#CC6666;}
	.st7{fill:#FFCCCC;}
	.st8{fill:#CC0000;stroke:#FFFFFF;stroke-width:1.25;}
	.st9{fill:#99CCFF;}
	.st10{fill:#6699CC;}
	.st11{fill:#CC3333;}
	.st12{fill:#CCFFFF;}
</style>
<g id="flag">
	<g>
		<defs>
			<rect id="SVGID_1_" y="0" width="640" height="480"/>
		</defs>
		<clipPath id="SVGID_2_">
			<use xlink:href="#SVGID_1_"  style="overflow:visible;"/>
		</clipPath>
		<g id="g3442" transform="matrix(2.2222 0 0 2.2222 0 .0001344)" class="st0">
			<path id="path1359" class="st1" d="M0,0v216h324V0C324,0,0,0,0,0z"/>
			<path id="path1553" class="st2" d="M0,144v12h324v-12H0z"/>
			<path id="path1555" class="st2" d="M0,168v12h324v-12H0z"/>
		</g>
	</g>
	<g id="g3256" transform="matrix(2.9521 0 0 2.9521 0.946 -7.3585)">
		<path id="path1360" class="st3" d="M48,12l1,1L48,12z"/>
		<path id="path1362" class="st3" d="M47,14l1,1L47,14 M49,14l1,1L49,14z"/>
		<path id="path1363" class="st4" d="M47,15l1,1L47,15 M49,15l1,1L49,15z"/>
		<path id="path1364" class="st5" d="M46,17l1,1L46,17z"/>
		<path id="path1365" class="st6" d="M48,17l1,1L48,17z"/>
		<path id="path1366" class="st5" d="M50,17l1,1L50,17z"/>
		<path id="path1367" class="st4" d="M46,18l1,1L46,18z"/>
		<path id="path1369" class="st4" d="M50,18l1,1L50,18z"/>
		<path id="path1370" class="st7" d="M47,19l1,1L47,19 M49,19l1,1L49,19z"/>
		<path id="path1371" class="st5" d="M45,20l1,1L45,20z"/>
		<path id="path1372" class="st8" d="M47.8,14l-7,26.6l-26.7,7.2l26.6,6.9l7.1,26.6l7.1-26.6l26.6-7.1l-26.6-7.1L47.8,14L47.8,14z"
			/>
		<path id="path1373" class="st5" d="M51,20l1,1L51,20z"/>
		<path id="path1374" class="st9" d="M45,21l1,1L45,21 M51,21l1,1L51,21z"/>
		<path id="path1375" class="st7" d="M46,22l1,1L46,22 M50,22l1,1L50,22z"/>
		<path id="path1376" class="st10" d="M44,23l1,1L44,23z"/>
		<path id="path1377" class="st11" d="M46.3,23.7l0.3,0.7L46.3,23.7 M50.3,23.7l0.3,0.7L50.3,23.7z"/>
		<path id="path1378" class="st10" d="M52,23l1,1L52,23z"/>
		<path id="path1379" class="st9" d="M44,24l1,1L44,24 M52,24l1,1L52,24z"/>
		<path id="path1380" class="st7" d="M45,25l1,1L45,25 M51,25l1,1L51,25z"/>
		<path id="path1381" class="st10" d="M43,26l1,1L43,26z"/>
		<path id="path1383" class="st10" d="M53,26l1,1L53,26z"/>
		<path id="path1384" class="st3" d="M43,27l1,1L43,27 M53,27l1,1L53,27z"/>
		<path id="path1385" class="st12" d="M43,28l1,1L43,28 M53,28l1,1L53,28z"/>
		<path id="path1386" class="st10" d="M42,29l1,1L42,29z"/>
		<path id="path1387" class="st7" d="M44,29l1,1L44,29 M52,29l1,1L52,29z"/>
		<path id="path1388" class="st10" d="M54,29l1,1L54,29z"/>
		<path id="path1389" class="st3" d="M42,30l1,1L42,30z"/>
		<path id="path1390" class="st11" d="M44.3,30.7l0.3,0.7L44.3,30.7 M52.3,30.7l0.3,0.7L52.3,30.7z"/>
		<path id="path1391" class="st3" d="M54,30l1,1L54,30z"/>
		<path id="path1392" class="st12" d="M42,31l1,1L42,31 M54,31l1,1L54,31z"/>
		<path id="path1393" class="st7" d="M43,32l1,1L43,32 M53,32l1,1L53,32z"/>
		<path id="path1394" class="st3" d="M41,33l1,1L41,33z"/>
		<path id="path1395" class="st11" d="M43.3,33.7l0.3,0.7L43.3,33.7 M53.3,33.7l0.3,0.7L53.3,33.7z"/>
		<path id="path1396" class="st3" d="M55,33l1,1L55,33z"/>
		<path id="path1397" class="st4" d="M41,34l1,1L41,34 M55,34l1,1L55,34z"/>
		<path id="path1398" class="st7" d="M42,35l1,1L42,35 M54,35l1,1L54,35z"/>
		<path id="path1399" class="st3" d="M40,36l1,1L40,36z"/>
		<path id="path1400" class="st11" d="M42.3,36.7l0.3,0.7L42.3,36.7 M54.3,36.7l0.3,0.7L54.3,36.7z"/>
		<path id="path1401" class="st3" d="M56,36l1,1L56,36z"/>
		<path id="path1402" class="st4" d="M40,37l1,1L40,37 M56,37l1,1L56,37z"/>
		<path id="path1403" class="st7" d="M41,38l1,1L41,38 M55,38l1,1L55,38z"/>
		<path id="path1404" class="st3" d="M39,39l1,1L39,39z"/>
		<path id="path1405" class="st11" d="M41,39l1,1L41,39 M55,39l1,1L55,39z"/>
		<path id="path1406" class="st3" d="M57,39l1,1L57,39 M36,40l1,1L36,40z"/>
		<path id="path1407" class="st4" d="M37,40l1,1L37,40 M59,40l1,1L59,40z"/>
		<path id="path1408" class="st3" d="M60,40l1,1L60,40 M33,41l1,1L33,41z"/>
		<path id="path1409" class="st4" d="M34,41l1,1L34,41z"/>
		<path id="path1410" class="st7" d="M38,41l1,1L38,41z"/>
		<path id="path1411" class="st11" d="M39,41l1,1L39,41 M57,41l1,1L57,41z"/>
		<path id="path1412" class="st7" d="M58,41l1,1L58,41z"/>
		<path id="path1413" class="st4" d="M62,41l1,1L62,41z"/>
		<path id="path1414" class="st3" d="M63,41l1,1L63,41z"/>
		<path id="path1415" class="st10" d="M29,42l1,1L29,42z"/>
		<path id="path1416" class="st3" d="M30,42l1,1L30,42z"/>
		<path id="path1417" class="st12" d="M31,42l1,1L31,42z"/>
		<path id="path1418" class="st7" d="M35,42l1,1L35,42z"/>
		<path id="path1419" class="st11" d="M36.7,42.3l0.7,0.3L36.7,42.3 M59.7,42.3l0.7,0.3L59.7,42.3z"/>
		<path id="path1420" class="st7" d="M61,42l1,1L61,42z"/>
		<path id="path1421" class="st12" d="M65,42l1,1L65,42z"/>
		<path id="path1422" class="st3" d="M66,42l1,1L66,42z"/>
		<path id="path1423" class="st10" d="M67,42l1,1L67,42 M26,43l1,1L26,43z"/>
		<path id="path1424" class="st3" d="M27,43l1,1L27,43z"/>
		<path id="path1425" class="st12" d="M28,43l1,1L28,43z"/>
		<path id="path1426" class="st7" d="M32,43l1,1L32,43z"/>
		<path id="path1427" class="st11" d="M33.7,43.3l0.7,0.3L33.7,43.3 M62.7,43.3l0.7,0.3L62.7,43.3z"/>
		<path id="path1428" class="st7" d="M64,43l1,1L64,43z"/>
		<path id="path1429" class="st12" d="M68,43l1,1L68,43z"/>
		<path id="path1430" class="st3" d="M69,43l1,1L69,43z"/>
		<path id="path1431" class="st10" d="M70,43l1,1L70,43 M23,44l1,1L23,44z"/>
		<path id="path1432" class="st9" d="M24,44l1,1L24,44z"/>
		<path id="path1433" class="st7" d="M29,44l1,1L29,44z"/>
		<path id="path1434" class="st11" d="M30.7,44.3l0.7,0.3L30.7,44.3 M65.7,44.3l0.7,0.3L65.7,44.3z"/>
		<path id="path1435" class="st7" d="M67,44l1,1L67,44z"/>
		<path id="path1436" class="st9" d="M72,44l1,1L72,44z"/>
		<path id="path1437" class="st10" d="M73,44l1,1L73,44z"/>
		<path id="path1438" class="st5" d="M20,45l1,1L20,45z"/>
		<path id="path1439" class="st9" d="M21,45l1,1L21,45z"/>
		<path id="path1440" class="st7" d="M25,45l1,1L25,45z"/>
		<path id="path1442" class="st7" d="M71,45l1,1L71,45z"/>
		<path id="path1443" class="st9" d="M75,45l1,1L75,45z"/>
		<path id="path1444" class="st5" d="M76,45l1,1L76,45 M17,46l1,1L17,46z"/>
		<path id="path1445" class="st4" d="M18,46l1,1L18,46z"/>
		<path id="path1446" class="st7" d="M22,46l1,1L22,46z"/>
		<path id="path1447" class="st11" d="M23.7,46.3l0.7,0.3L23.7,46.3 M72.7,46.3l0.7,0.3L72.7,46.3z"/>
		<path id="path1448" class="st7" d="M74,46l1,1L74,46z"/>
		<path id="path1449" class="st4" d="M78,46l1,1L78,46z"/>
		<path id="path1450" class="st5" d="M79,46l1,1L79,46z"/>
		<path id="path1451" class="st3" d="M14,47l1,1L14,47z"/>
		<path id="path1452" class="st4" d="M15,47l1,1L15,47z"/>
		<path id="path1453" class="st7" d="M19,47l1,1L19,47z"/>
		<path id="path1455" class="st7" d="M77,47l1,1L77,47z"/>
		<path id="path1456" class="st4" d="M81,47l1,1L81,47z"/>
		<path id="path1457" class="st3" d="M82,47l1,1L82,47 M12,48l1,1L12,48z"/>
		<path id="path1458" class="st6" d="M17,48l1,1L17,48z"/>
		<path id="path1460" class="st6" d="M79,48l1,1L79,48z"/>
		<path id="path1461" class="st3" d="M84,48l1,1L84,48 M14,49l1,1L14,49z"/>
		<path id="path1462" class="st4" d="M15,49l1,1L15,49z"/>
		<path id="path1463" class="st7" d="M19,49l1,1L19,49 M77,49l1,1L77,49z"/>
		<path id="path1464" class="st4" d="M81,49l1,1L81,49z"/>
		<path id="path1465" class="st3" d="M82,49l1,1L82,49z"/>
		<path id="path1466" class="st5" d="M17,50l1,1L17,50z"/>
		<path id="path1467" class="st4" d="M18,50l1,1L18,50z"/>
		<path id="path1468" class="st7" d="M22,50l1,1L22,50z"/>
		<path id="path1469" class="st11" d="M23.7,50.3l0.7,0.3L23.7,50.3 M72.7,50.3l0.7,0.3L72.7,50.3z"/>
		<path id="path1470" class="st7" d="M74,50l1,1L74,50z"/>
		<path id="path1471" class="st4" d="M78,50l1,1L78,50z"/>
		<path id="path1472" class="st5" d="M79,50l1,1L79,50 M20,51l1,1L20,51z"/>
		<path id="path1473" class="st9" d="M21,51l1,1L21,51z"/>
		<path id="path1474" class="st7" d="M25,51l1,1L25,51z"/>
		<path id="path1476" class="st7" d="M71,51l1,1L71,51z"/>
		<path id="path1477" class="st9" d="M75,51l1,1L75,51z"/>
		<path id="path1478" class="st5" d="M76,51l1,1L76,51z"/>
		<path id="path1479" class="st10" d="M23,52l1,1L23,52z"/>
		<path id="path1480" class="st9" d="M24,52l1,1L24,52z"/>
		<path id="path1481" class="st7" d="M29,52l1,1L29,52z"/>
		<path id="path1482" class="st11" d="M30.7,52.3l0.7,0.3L30.7,52.3 M65.7,52.3l0.7,0.3L65.7,52.3z"/>
		<path id="path1483" class="st7" d="M67,52l1,1L67,52z"/>
		<path id="path1484" class="st9" d="M72,52l1,1L72,52z"/>
		<path id="path1485" class="st10" d="M73,52l1,1L73,52 M26,53l1,1L26,53z"/>
		<path id="path1486" class="st3" d="M27,53l1,1L27,53z"/>
		<path id="path1487" class="st12" d="M28,53l1,1L28,53z"/>
		<path id="path1488" class="st7" d="M32,53l1,1L32,53z"/>
		<path id="path1489" class="st11" d="M33.7,53.3l0.7,0.3L33.7,53.3 M62.7,53.3l0.7,0.3L62.7,53.3z"/>
		<path id="path1490" class="st7" d="M64,53l1,1L64,53z"/>
		<path id="path1491" class="st12" d="M68,53l1,1L68,53z"/>
		<path id="path1492" class="st3" d="M69,53l1,1L69,53z"/>
		<path id="path1493" class="st10" d="M70,53l1,1L70,53 M29,54l1,1L29,54z"/>
		<path id="path1494" class="st3" d="M30,54l1,1L30,54z"/>
		<path id="path1495" class="st12" d="M31,54l1,1L31,54z"/>
		<path id="path1496" class="st7" d="M35,54l1,1L35,54z"/>
		<path id="path1497" class="st11" d="M36.7,54.3l0.7,0.3L36.7,54.3 M59.7,54.3l0.7,0.3L59.7,54.3z"/>
		<path id="path1498" class="st7" d="M61,54l1,1L61,54z"/>
		<path id="path1499" class="st12" d="M65,54l1,1L65,54z"/>
		<path id="path1500" class="st3" d="M66,54l1,1L66,54z"/>
		<path id="path1501" class="st10" d="M67,54l1,1L67,54z"/>
		<path id="path1502" class="st3" d="M33,55l1,1L33,55z"/>
		<path id="path1503" class="st4" d="M34,55l1,1L34,55z"/>
		<path id="path1504" class="st7" d="M38,55l1,1L38,55z"/>
		<path id="path1505" class="st11" d="M39,55l1,1L39,55 M57,55l1,1L57,55z"/>
		<path id="path1506" class="st7" d="M58,55l1,1L58,55z"/>
		<path id="path1507" class="st4" d="M62,55l1,1L62,55z"/>
		<path id="path1508" class="st3" d="M63,55l1,1L63,55 M36,56l1,1L36,56z"/>
		<path id="path1509" class="st4" d="M37,56l1,1L37,56 M59,56l1,1L59,56z"/>
		<path id="path1510" class="st3" d="M60,56l1,1L60,56 M39,57l1,1L39,57z"/>
		<path id="path1511" class="st11" d="M41,57l1,1L41,57 M55,57l1,1L55,57z"/>
		<path id="path1512" class="st3" d="M57,57l1,1L57,57z"/>
		<path id="path1513" class="st7" d="M41,58l1,1L41,58 M55,58l1,1L55,58z"/>
		<path id="path1514" class="st4" d="M40,59l1,1L40,59z"/>
		<path id="path1515" class="st11" d="M42.3,59.7l0.3,0.7L42.3,59.7 M54.3,59.7l0.3,0.7L54.3,59.7z"/>
		<path id="path1516" class="st4" d="M56,59l1,1L56,59z"/>
		<path id="path1517" class="st3" d="M40,60l1,1L40,60 M56,60l1,1L56,60z"/>
		<path id="path1518" class="st7" d="M42,61l1,1L42,61 M54,61l1,1L54,61z"/>
		<path id="path1519" class="st4" d="M41,62l1,1L41,62z"/>
		<path id="path1520" class="st11" d="M43.3,62.7l0.3,0.7L43.3,62.7 M53.3,62.7l0.3,0.7L53.3,62.7z"/>
		<path id="path1521" class="st4" d="M55,62l1,1L55,62z"/>
		<path id="path1522" class="st3" d="M41,63l1,1L41,63 M55,63l1,1L55,63z"/>
		<path id="path1523" class="st7" d="M43,64l1,1L43,64 M53,64l1,1L53,64z"/>
		<path id="path1524" class="st12" d="M42,65l1,1L42,65z"/>
		<path id="path1525" class="st11" d="M44.3,65.7l0.3,0.7L44.3,65.7 M52.3,65.7l0.3,0.7L52.3,65.7z"/>
		<path id="path1526" class="st12" d="M54,65l1,1L54,65z"/>
		<path id="path1527" class="st3" d="M42,66l1,1L42,66 M54,66l1,1L54,66z"/>
		<path id="path1528" class="st10" d="M42,67l1,1L42,67z"/>
		<path id="path1529" class="st7" d="M44,67l1,1L44,67 M52,67l1,1L52,67z"/>
		<path id="path1530" class="st10" d="M54,67l1,1L54,67z"/>
		<path id="path1531" class="st12" d="M43,68l1,1L43,68z"/>
		<path id="path1533" class="st12" d="M53,68l1,1L53,68z"/>
		<path id="path1534" class="st3" d="M43,69l1,1L43,69 M53,69l1,1L53,69z"/>
		<path id="path1535" class="st10" d="M43,70l1,1L43,70 M53,70l1,1L53,70z"/>
		<path id="path1536" class="st7" d="M45,71l1,1L45,71 M51,71l1,1L51,71z"/>
		<path id="path1537" class="st9" d="M44,72l1,1L44,72z"/>
		<path id="path1538" class="st11" d="M46.3,72.7l0.3,0.7L46.3,72.7 M50.3,72.7l0.3,0.7L50.3,72.7z"/>
		<path id="path1539" class="st9" d="M52,72l1,1L52,72z"/>
		<path id="path1540" class="st10" d="M44,73l1,1L44,73 M52,73l1,1L52,73z"/>
		<path id="path1541" class="st7" d="M46,74l1,1L46,74 M50,74l1,1L50,74z"/>
		<path id="path1542" class="st9" d="M45,75l1,1L45,75z"/>
		<path id="path1544" class="st9" d="M51,75l1,1L51,75z"/>
		<path id="path1545" class="st5" d="M45,76l1,1L45,76 M51,76l1,1L51,76z"/>
		<path id="path1546" class="st7" d="M47,77l1,1L47,77 M49,77l1,1L49,77z"/>
		<path id="path1547" class="st4" d="M46,78l1,1L46,78 M50,78l1,1L50,78z"/>
		<path id="path1548" class="st5" d="M46,79l1,1L46,79z"/>
		<path id="path1549" class="st6" d="M48,79l1,1L48,79z"/>
		<path id="path1550" class="st5" d="M50,79l1,1L50,79z"/>
		<path id="path1551" class="st4" d="M47,81l1,1L47,81 M49,81l1,1L49,81z"/>
		<path id="path1552" class="st3" d="M47,82l1,1L47,82 M49,82l1,1L49,82 M48,84l1,1L48,84z"/>
	</g>
</g>
</svg>
