<svg xmlns="http://www.w3.org/2000/svg" width="16" height="16" viewBox="0 0 16 16">
  <g fill="#BDBDBD" fill-rule="evenodd">
    <polygon points="6.697 6.545 7.273 6.545 8.727 6.545 9.303 6.545 8 5.517"/>
    <path d="M11.2727273,10.5454545 L10.5454545,11.2727273 L9.81818182,11.2727273 L6.18181818,11.2727273 L5.45454545,11.2727273 L4.72727273,10.5454545 L4,7.27272727 L4.72727273,6.54545455 L5.822,6.54545455 L7.63381818,4.72727273 L8.36618182,4.72727273 L10.178,6.54545455 L11.2727273,6.54545455 L12,7.27272727 L11.2727273,10.5454545 Z M8,0 C3.58163636,0 0,3.58163636 0,8 C0,12.4183636 3.58163636,16 8,16 C12.4183636,16 16,12.4183636 16,8 C16,3.58163636 12.4183636,0 8,0 L8,0 Z"/>
  </g>
</svg>
