<svg xmlns="http://www.w3.org/2000/svg" xmlns:xlink="http://www.w3.org/1999/xlink" width="16" height="16" viewBox="0 0 16 16">
  <defs>
    <polygon id="heart-a" points="16 16 0 16 0 0 16 0"/>
  </defs>
  <g fill="none" fill-rule="evenodd">
    <mask id="heart-b" fill="#fff">
      <use xlink:href="#heart-a"/>
    </mask>
    <path fill="#BDBDBD" d="M10.8674091,8.34084545 L8.18304545,11.2727545 L7.81940909,11.2727545 L5.13259091,8.33802727 L5.13522727,8.33802727 C4.8275,8.01239091 4.63759091,7.5743 4.63759091,7.09093636 C4.63759091,6.08675455 5.45168182,5.27275455 6.45577273,5.27275455 C7.10940909,5.27275455 7.68086364,5.61875455 8.00122727,6.13657273 C8.32168182,5.61875455 8.89304545,5.27275455 9.54668182,5.27275455 C10.5508636,5.27275455 11.3648636,6.08675455 11.3648636,7.09093636 C11.3648636,7.57566364 11.1740455,8.01493636 10.8648636,8.34084545 L10.8674091,8.34084545 Z M7.99995455,2.72727273e-05 C3.58168182,2.72727273e-05 -4.54545455e-05,3.58166364 -4.54545455e-05,8.00002727 C-4.54545455e-05,12.4183 3.58168182,16.0000273 7.99995455,16.0000273 C12.4183182,16.0000273 15.9999545,12.4183 15.9999545,8.00002727 C15.9999545,3.58166364 12.4183182,2.72727273e-05 7.99995455,2.72727273e-05 L7.99995455,2.72727273e-05 Z" mask="url(#heart-b)"/>
  </g>
</svg>
