<?xml version="1.0" encoding="utf-8"?>
<!-- Generator: Adobe Illustrator 20.1.0, SVG Export Plug-In . SVG Version: 6.00 Build 0)  -->
<svg version="1.1" baseProfile="basic" id="Layer_1"
	 xmlns="http://www.w3.org/2000/svg" xmlns:xlink="http://www.w3.org/1999/xlink" x="0px" y="0px" viewBox="0 0 500 195.951"
	 xml:space="preserve">
<g>
	<path d="M2.634,176.875l29.978-9.084V48.49L2.634,53.336V35.47l61.77-29.976h23.619v162.296l29.068,9.084v15.443H2.634V176.875z"/>
	<path d="M129.791,100.873c0-66.614,43.603-96.59,89.627-96.59c47.539,0,86.902,30.28,86.902,94.775
		c0,66.31-43.299,96.894-89.021,96.894C168.548,195.951,129.791,165.066,129.791,100.873z M244.55,101.479
		c0-60.557-7.267-77.817-26.645-77.817c-18.471,0-26.647,18.167-26.647,74.79c0,59.649,6.965,77.817,26.949,77.817
		C236.677,176.269,244.55,158.405,244.55,101.479z"/>
	<path d="M320.837,100.873c0-66.614,43.603-96.59,89.627-96.59c47.537,0,86.902,30.28,86.902,94.775
		c0,66.31-43.303,96.894-89.021,96.894C359.594,195.951,320.837,165.066,320.837,100.873z M435.596,101.479
		c0-60.557-7.267-77.817-26.645-77.817c-18.471,0-26.647,18.167-26.647,74.79c0,59.649,6.965,77.817,26.949,77.817
		C427.723,176.269,435.596,158.405,435.596,101.479z"/>
</g>
</svg>
