<svg xmlns="http://www.w3.org/2000/svg" xmlns:xlink="http://www.w3.org/1999/xlink" width="16" height="16" viewBox="0 0 16 16">
  <defs>
    <polygon id="pound-a" points="16 16 0 16 0 0 16 0"/>
  </defs>
  <g fill="none" fill-rule="evenodd">
    <mask id="pound-b" fill="#fff">
      <use xlink:href="#pound-a"/>
    </mask>
    <path fill="#BDBDBD" d="M7.99995455,2.72727273e-05 C3.58168182,2.72727273e-05 -4.54545455e-05,3.58166364 -4.54545455e-05,8.00002727 C-4.54545455e-05,12.4183 3.58168182,16.0000273 7.99995455,16.0000273 C12.4183182,16.0000273 15.9999545,12.4183 15.9999545,8.00002727 C15.9999545,3.58166364 12.4183182,2.72727273e-05 7.99995455,2.72727273e-05 L7.99995455,2.72727273e-05 Z" mask="url(#pound-b)"/>
    <path fill="#FFF" d="M5.89940067,8.52112891 L6.53940067,8.52112891 L6.53940067,8.93255748 C6.53940067,9.63655748 6.27425781,10.0114146 5.82625781,10.2491289 L5.82625781,11.199986 L10.2422578,11.199986 L10.2422578,10.1577003 L7.29825781,10.1577003 L7.29825781,10.1394146 C7.70054353,9.83770033 7.93825781,9.46284319 7.93825781,8.73141462 L7.93825781,8.52112891 L9.46511496,8.52112891 L9.46511496,7.61598605 L7.93825781,7.61598605 L7.93825781,7.00341462 C7.93825781,6.07998605 8.50511496,5.84227176 9.12682924,5.84227176 C9.57482924,5.84227176 9.83082924,5.90627176 10.1599721,6.00684319 L10.1599721,5.05598605 C9.9039721,4.90055748 9.47425781,4.75427176 8.77940067,4.75427176 C7.55425781,4.75427176 6.53940067,5.38512891 6.53940067,6.88455748 L6.53940067,7.61598605 L5.89940067,7.61598605 L5.89940067,8.52112891 Z" mask="url(#pound-b)"/>
  </g>
</svg>
