<?xml version="1.0" encoding="utf-8"?>
<!-- Generator: Adobe Illustrator 20.1.0, SVG Export Plug-In . SVG Version: 6.00 Build 0)  -->
<svg version="1.1" id="Layer_1" xmlns="http://www.w3.org/2000/svg" xmlns:xlink="http://www.w3.org/1999/xlink" x="0px" y="0px"
	 viewBox="0 0 373 249" style="enable-background:new 0 0 373 249;" xml:space="preserve">
<title>60 copy</title>
<desc>Created with Sketch.</desc>
<g style="opacity:0.1;">
	<path style="fill:#FFFFFF;" d="M20.6,235.8l60.3-60.3c36.9-36.9,67.6-67.6,67.6-109c0-37.3-19.9-56.1-59.2-56.1
		c-26.1,0-43.5,6.3-62.4,16.4V17C45.3,6.9,64.1,0.6,91.3,0.6c44.9,0,69,23.3,69,65.1c0,44.2-32,77-71.8,115.6l-53.6,52.9v0.7h131
		v9.8H20.6V235.8z"/>
	<path style="fill:#FFFFFF;" d="M188.2,129.5v-10.1c0-77,34.8-118.8,92-118.8c56.8,0,90.9,41.1,90.9,118.1v10.5
		c0,77-33.8,118.8-91.3,118.8C222.3,248,188.2,205.8,188.2,129.5z M359.2,130.6v-12.2c0-67.6-26.1-108-79.1-108
		c-53.3,0-79.8,40.1-79.8,107.6v11.8c0,67.9,26.5,108,79.4,108C333.1,237.9,359.2,198.8,359.2,130.6z"/>
</g>
</svg>
